<svg width="121" height="32" viewBox="0 0 121 32" fill="none" xmlns="http://www.w3.org/2000/svg">
<g clip-path="url(#clip0_68_142)">
<path d="M31.5001 23H-0.499864L-0.499861 30.3996H31.5001L31.5001 23ZM31.5001 1.59961H-0.499861V9.5H31.5001V1.59961ZM45.7961 27.9996V4.72661H54.7051C56.3865 4.72661 57.7841 4.99194 58.8981 5.52261C60.0181 6.04461 60.8551 6.76028 61.4091 7.66961C61.9691 8.57961 62.2495 9.60994 62.2501 10.7606C62.2501 11.7073 62.0685 12.5179 61.7051 13.1926C61.3543 13.8443 60.8514 14.4018 60.2391 14.8176C59.6251 15.2343 58.9395 15.5336 58.1821 15.7156V15.9426C59.0075 15.9893 59.7991 16.2429 60.5571 16.7036C61.3225 17.1589 61.9475 17.8029 62.4321 18.6356C62.9168 19.4689 63.1591 20.4766 63.1591 21.6586C63.1591 22.8633 62.8675 23.9466 62.2841 24.9086C61.7008 25.8633 60.8221 26.6173 59.6481 27.1706C58.4741 27.7239 56.9968 28.0003 55.2161 27.9996H45.7961ZM50.0111 24.4766H54.5451C56.0758 24.4766 57.1781 24.1849 57.8521 23.6016C58.5341 23.0116 58.8751 22.2539 58.8751 21.3286C58.8751 20.6399 58.7048 20.0189 58.3641 19.4656C58.0228 18.9056 57.5378 18.4663 56.9091 18.1476C56.2805 17.8216 55.5305 17.6586 54.6591 17.6586H50.0111V24.4766ZM50.0111 14.6246H54.1811C54.9091 14.6246 55.5648 14.4919 56.1481 14.2266C56.7035 13.978 57.1794 13.5807 57.5231 13.0786C57.8631 12.5786 58.0335 11.9879 58.0341 11.3066C58.0341 10.4046 57.7161 9.66228 57.0801 9.07961C56.4508 8.49561 55.5151 8.20394 54.2731 8.20461H50.0101L50.0111 14.6246ZM65.3651 27.9996V10.5456H69.3541V13.4546H69.5351C69.8538 12.4473 70.3995 11.6706 71.1721 11.1246C71.9521 10.5713 72.8421 10.2946 73.8421 10.2946C74.0688 10.2946 74.3225 10.3059 74.6031 10.3286C74.8911 10.3439 75.1298 10.3706 75.3191 10.4086V14.1926C75.1458 14.1326 74.8691 14.0796 74.4891 14.0336C74.1317 13.9826 73.7712 13.9559 73.4101 13.9536C72.6601 13.9536 71.9861 14.1169 71.3881 14.4436C70.8099 14.7512 70.3266 15.2107 69.9901 15.7726C69.6495 16.3406 69.4791 16.9959 69.4791 17.7386V27.9996H65.3651ZM76.7721 27.9996V10.5456H80.8861V27.9996H76.7721ZM78.8411 8.06761C78.2176 8.07835 77.6143 7.84594 77.1591 7.41961C76.6891 6.98094 76.4541 6.45428 76.4541 5.83961C76.4541 5.21961 76.6891 4.69328 77.1591 4.26061C77.6285 3.82128 78.1891 3.60161 78.8411 3.60161C79.5005 3.60161 80.0608 3.82161 80.5221 4.26161C80.9921 4.69294 81.2271 5.21928 81.2271 5.84061C81.2271 6.45394 80.9921 6.98061 80.5221 7.42061C80.0601 7.85194 79.4998 8.06761 78.8411 8.06761ZM91.4501 28.3406C89.7075 28.3406 88.2111 27.9579 86.9611 27.1926C85.7191 26.4273 84.7608 25.3706 84.0861 24.0226C83.4195 22.6666 83.0861 21.1059 83.0861 19.3406C83.0861 17.5673 83.4271 16.0029 84.1091 14.6476C84.7911 13.2843 85.7531 12.2236 86.9951 11.4656C88.2451 10.7003 89.7225 10.3176 91.4271 10.3176C92.8438 10.3176 94.0975 10.5789 95.1881 11.1016C96.2875 11.6163 97.1625 12.3476 97.8131 13.2956C98.4651 14.2343 98.8365 15.3326 98.9271 16.5906H94.9951C94.8358 15.7493 94.4571 15.0486 93.8591 14.4886C93.2678 13.9199 92.4761 13.6356 91.4841 13.6356C90.6428 13.6356 89.9041 13.8629 89.2681 14.3176C88.6321 14.7643 88.1358 15.4083 87.7791 16.2496C87.4311 17.0903 87.2571 18.0979 87.2571 19.2726C87.2571 20.4626 87.4311 21.4853 87.7791 22.3406C88.1278 23.1893 88.6165 23.8446 89.2451 24.3066C89.8818 24.7606 90.6281 24.9879 91.4841 24.9886C92.0908 24.9886 92.6325 24.8749 93.1091 24.6476C93.5938 24.4129 93.9991 24.0756 94.3251 23.6356C94.6505 23.1963 94.8738 22.6623 94.9951 22.0336H98.9271C98.8285 23.2689 98.4651 24.3636 97.8371 25.3176C97.2071 26.2649 96.3508 27.0073 95.2681 27.5446C94.1848 28.0753 92.9121 28.3406 91.4501 28.3406ZM104.775 22.5226L104.764 17.5566H105.423L111.695 10.5456H116.502L108.786 19.1356H107.934L104.775 22.5226ZM101.025 27.9996V4.72661H105.139V27.9996H101.025ZM111.979 27.9996L106.298 20.0566L109.07 17.1586L116.9 27.9996H111.979Z" fill="#FB4D17"/>
<path d="M-0.5 12.5H31.5V20.4004H-0.5V12.5Z" fill="#FB4D17"/>
</g>
<defs>
<clipPath id="clip0_68_142">
<rect width="121" height="32" fill="white"/>
</clipPath>
</defs>
</svg>
