<svg width="154" height="40" viewBox="0 0 154 40" fill="none" xmlns="http://www.w3.org/2000/svg">
<g clip-path="url(#clip0_68_144)">
<path d="M39.5 28.7504H-0.49983L-0.499826 37.9998H39.5L39.5 28.7504ZM39.5 2H-0.499826V11.8754H39.5V2Z" fill="#FB4D17"/>
<path d="M-0.5 15.6254H39.4998V25.5009H-0.5V15.6254Z" fill="#FB4D17"/>
<path d="M54.3701 35.0003V5.91034H65.5061C67.6088 5.91034 69.3558 6.24134 70.7471 6.90334C72.1485 7.55734 73.1951 8.45234 73.8871 9.58834C74.5871 10.7243 74.9371 12.0123 74.9371 13.4523C74.9371 14.6357 74.7101 15.649 74.2561 16.4923C73.8176 17.3068 73.1888 18.0033 72.4231 18.5223C71.6413 19.0489 70.7706 19.4294 69.8531 19.6453V19.9293C70.8851 19.986 71.8745 20.3033 72.8211 20.8813C73.7778 21.4493 74.5591 22.2543 75.1651 23.2963C75.7711 24.337 76.0741 25.5963 76.0741 27.0743C76.0741 28.5797 75.7095 29.9337 74.9801 31.1363C74.2501 32.3297 73.1518 33.272 71.6851 33.9633C70.2171 34.6547 68.3704 35.0003 66.1451 35.0003H54.3701ZM59.6401 30.5973H65.3071C67.2198 30.5973 68.5975 30.2327 69.4401 29.5033C70.2935 28.7647 70.7198 27.8177 70.7191 26.6623C70.7191 25.8003 70.5058 25.0237 70.0791 24.3323C69.6531 23.6323 69.0471 23.0833 68.2611 22.6853C67.4751 22.2787 66.5378 22.075 65.4491 22.0743H59.6391L59.6401 30.5973ZM59.6401 18.2813H64.8521C65.7614 18.2813 66.5808 18.1157 67.3101 17.7843C68.0394 17.4443 68.6121 16.966 69.0281 16.3493C69.4548 15.7247 69.6681 14.986 69.6681 14.1333C69.6681 13.0073 69.2701 12.0793 68.4741 11.3493C67.6881 10.6207 66.5188 10.2563 64.9661 10.2563H59.6391L59.6401 18.2813ZM78.8301 35.0003V13.1823H83.8161V16.8183H84.0431C84.4411 15.5583 85.1231 14.5877 86.0891 13.9063C87.0644 13.215 88.1771 12.8693 89.4271 12.8693C89.7111 12.8693 90.0281 12.8837 90.3781 12.9123C90.7381 12.931 91.0365 12.9643 91.2731 13.0123V17.7423C91.0558 17.6663 90.7101 17.5997 90.2361 17.5423C89.789 17.4773 89.3379 17.4442 88.8861 17.4433C87.9488 17.4433 87.1061 17.647 86.3581 18.0543C85.6345 18.4379 85.0302 19.0128 84.6111 19.7163C84.1851 20.427 83.9721 21.246 83.9721 22.1733V35.0003H78.8301ZM93.0901 35.0003V13.1823H98.2321V35.0003H93.0901ZM95.6751 10.0853C94.8955 10.0989 94.1412 9.80838 93.5721 9.27534C92.9855 8.72601 92.6921 8.06801 92.6921 7.30134C92.6921 6.52467 92.9855 5.86667 93.5721 5.32734C94.1372 4.78644 94.893 4.49033 95.6751 4.50334C96.4991 4.50334 97.1998 4.77801 97.7771 5.32734C98.3638 5.86734 98.6571 6.52534 98.6571 7.30134C98.6571 8.06801 98.3638 8.72634 97.7771 9.27634C97.1991 9.81634 96.4985 10.0863 95.6751 10.0863M111.436 35.4273C109.258 35.4273 107.388 34.9493 105.825 33.9933C104.272 33.0367 103.074 31.7153 102.232 30.0293C101.399 28.3347 100.982 26.384 100.982 24.1773C100.982 21.9613 101.408 20.006 102.26 18.3113C103.112 16.6067 104.315 15.2807 105.868 14.3333C107.431 13.3773 109.277 12.8993 111.408 12.8993C113.179 12.8993 114.746 13.226 116.11 13.8793C117.483 14.5233 118.576 15.437 119.391 16.6203C120.205 17.795 120.669 19.1683 120.783 20.7403H115.868C115.669 19.689 115.196 18.813 114.448 18.1123C113.709 17.4023 112.719 17.0473 111.479 17.0473C110.428 17.0473 109.504 17.3313 108.709 17.8993C107.913 18.4573 107.293 19.2623 106.848 20.3143C106.413 21.3643 106.195 22.6237 106.195 24.0923C106.195 25.579 106.413 26.8573 106.848 27.9273C107.284 28.9873 107.895 29.8067 108.681 30.3853C109.476 30.9533 110.409 31.2373 111.479 31.2373C112.236 31.2373 112.913 31.0953 113.51 30.8113C114.112 30.5203 114.634 30.0863 115.03 29.5473C115.437 28.9973 115.717 28.3297 115.868 27.5443H120.783C120.66 29.0877 120.205 30.456 119.419 31.6493C118.633 32.8327 117.563 33.7607 116.209 34.4333C114.855 35.096 113.264 35.4273 111.436 35.4273ZM128.093 28.1543L128.078 21.9473H128.902L136.743 13.1833H142.752L133.107 23.9223H132.041L128.093 28.1543ZM123.406 35.0003V5.91034H128.548V35.0003H123.406ZM137.099 35.0003L129.997 25.0713L133.463 21.4493L143.25 35.0003H137.099Z" fill="white"/>
</g>
<defs>
<clipPath id="clip0_68_144">
<rect width="154" height="40" fill="white"/>
</clipPath>
</defs>
</svg>
