<svg width="121" height="32" viewBox="0 0 121 32" fill="none" xmlns="http://www.w3.org/2000/svg">
<path d="M32.0001 23H0.000135779L0.000139475 30.3996H32.0001L32.0001 23ZM32.0001 1.59961H0.000139475V9.5H32.0001V1.59961ZM46.2961 27.9996V4.72661H55.2051C56.8865 4.72661 58.2841 4.99194 59.3981 5.52261C60.5181 6.04461 61.3551 6.76028 61.9091 7.66961C62.4691 8.57961 62.7495 9.60994 62.7501 10.7606C62.7501 11.7073 62.5685 12.5179 62.2051 13.1926C61.8543 13.8443 61.3514 14.4018 60.7391 14.8176C60.1251 15.2343 59.4395 15.5336 58.6821 15.7156V15.9426C59.5075 15.9893 60.2991 16.2429 61.0571 16.7036C61.8225 17.1589 62.4475 17.8029 62.9321 18.6356C63.4168 19.4689 63.6591 20.4766 63.6591 21.6586C63.6591 22.8633 63.3675 23.9466 62.7841 24.9086C62.2008 25.8633 61.3221 26.6173 60.1481 27.1706C58.9741 27.7239 57.4968 28.0003 55.7161 27.9996H46.2961ZM50.5111 24.4766H55.0451C56.5758 24.4766 57.6781 24.1849 58.3521 23.6016C59.0341 23.0116 59.3751 22.2539 59.3751 21.3286C59.3751 20.6399 59.2048 20.0189 58.8641 19.4656C58.5228 18.9056 58.0378 18.4663 57.4091 18.1476C56.7805 17.8216 56.0305 17.6586 55.1591 17.6586H50.5111V24.4766ZM50.5111 14.6246H54.6811C55.4091 14.6246 56.0648 14.4919 56.6481 14.2266C57.2035 13.978 57.6794 13.5807 58.0231 13.0786C58.3631 12.5786 58.5335 11.9879 58.5341 11.3066C58.5341 10.4046 58.2161 9.66228 57.5801 9.07961C56.9508 8.49561 56.0151 8.20394 54.7731 8.20461H50.5101L50.5111 14.6246ZM65.8651 27.9996V10.5456H69.8541V13.4546H70.0351C70.3538 12.4473 70.8995 11.6706 71.6721 11.1246C72.4521 10.5713 73.3421 10.2946 74.3421 10.2946C74.5688 10.2946 74.8225 10.3059 75.1031 10.3286C75.3911 10.3439 75.6298 10.3706 75.8191 10.4086V14.1926C75.6458 14.1326 75.3691 14.0796 74.9891 14.0336C74.6317 13.9826 74.2712 13.9559 73.9101 13.9536C73.1601 13.9536 72.4861 14.1169 71.8881 14.4436C71.3099 14.7512 70.8266 15.2107 70.4901 15.7726C70.1495 16.3406 69.9791 16.9959 69.9791 17.7386V27.9996H65.8651ZM77.2721 27.9996V10.5456H81.3861V27.9996H77.2721ZM79.3411 8.06761C78.7176 8.07835 78.1143 7.84594 77.6591 7.41961C77.1891 6.98094 76.9541 6.45428 76.9541 5.83961C76.9541 5.21961 77.1891 4.69328 77.6591 4.26061C78.1285 3.82128 78.6891 3.60161 79.3411 3.60161C80.0005 3.60161 80.5608 3.82161 81.0221 4.26161C81.4921 4.69294 81.7271 5.21928 81.7271 5.84061C81.7271 6.45394 81.4921 6.98061 81.0221 7.42061C80.5601 7.85194 79.9998 8.06761 79.3411 8.06761ZM91.9501 28.3406C90.2075 28.3406 88.7111 27.9579 87.4611 27.1926C86.2191 26.4273 85.2608 25.3706 84.5861 24.0226C83.9195 22.6666 83.5861 21.1059 83.5861 19.3406C83.5861 17.5673 83.9271 16.0029 84.6091 14.6476C85.2911 13.2843 86.2531 12.2236 87.4951 11.4656C88.7451 10.7003 90.2225 10.3176 91.9271 10.3176C93.3438 10.3176 94.5975 10.5789 95.6881 11.1016C96.7875 11.6163 97.6625 12.3476 98.3131 13.2956C98.9651 14.2343 99.3365 15.3326 99.4271 16.5906H95.4951C95.3358 15.7493 94.9571 15.0486 94.3591 14.4886C93.7678 13.9199 92.9761 13.6356 91.9841 13.6356C91.1428 13.6356 90.4041 13.8629 89.7681 14.3176C89.1321 14.7643 88.6358 15.4083 88.2791 16.2496C87.9311 17.0903 87.7571 18.0979 87.7571 19.2726C87.7571 20.4626 87.9311 21.4853 88.2791 22.3406C88.6278 23.1893 89.1165 23.8446 89.7451 24.3066C90.3818 24.7606 91.1281 24.9879 91.9841 24.9886C92.5908 24.9886 93.1325 24.8749 93.6091 24.6476C94.0938 24.4129 94.4991 24.0756 94.8251 23.6356C95.1505 23.1963 95.3738 22.6623 95.4951 22.0336H99.4271C99.3285 23.2689 98.9651 24.3636 98.3371 25.3176C97.7071 26.2649 96.8508 27.0073 95.7681 27.5446C94.6848 28.0753 93.4121 28.3406 91.9501 28.3406ZM105.275 22.5226L105.264 17.5566H105.923L112.195 10.5456H117.002L109.286 19.1356H108.434L105.275 22.5226ZM101.525 27.9996V4.72661H105.639V27.9996H101.525ZM112.479 27.9996L106.798 20.0566L109.57 17.1586L117.4 27.9996H112.479Z" fill="white"/>
<path d="M0 12.5H32V20.4004H0V12.5Z" fill="white"/>
</svg>
